<?xml version="1.0" encoding="UTF-8" standalone="no"?>
<!-- Created with Inkscape (http://www.inkscape.org/) -->

<svg
   xmlns:dc="http://purl.org/dc/elements/1.1/"
   xmlns:cc="http://creativecommons.org/ns#"
   xmlns:rdf="http://www.w3.org/1999/02/22-rdf-syntax-ns#"
   xmlns:svg="http://www.w3.org/2000/svg"
   xmlns="http://www.w3.org/2000/svg"
   xmlns:sodipodi="http://sodipodi.sourceforge.net/DTD/sodipodi-0.dtd"
   xmlns:inkscape="http://www.inkscape.org/namespaces/inkscape"
   width="210mm"
   height="297mm"
   viewBox="0 0 210 297"
   version="1.1"
   id="svg3739"
   inkscape:version="0.92.3 (2405546, 2018-03-11)"
   sodipodi:docname="aaa.svg">
  <defs
     id="defs3733" />
  <sodipodi:namedview
     id="base"
     pagecolor="#ffffff"
     bordercolor="#666666"
     borderopacity="1.0"
     inkscape:pageopacity="0.0"
     inkscape:pageshadow="2"
     inkscape:zoom="0.35"
     inkscape:cx="63.404856"
     inkscape:cy="704.23901"
     inkscape:document-units="mm"
     inkscape:current-layer="layer1"
     showgrid="false"
     inkscape:window-width="1920"
     inkscape:window-height="1017"
     inkscape:window-x="-8"
     inkscape:window-y="-8"
     inkscape:window-maximized="1" />
  <metadata
     id="metadata3736">
    <rdf:RDF>
      <cc:Work
         rdf:about="">
        <dc:format>image/svg+xml</dc:format>
        <dc:type
           rdf:resource="http://purl.org/dc/dcmitype/StillImage" />
        <dc:title />
      </cc:Work>
    </rdf:RDF>
  </metadata>
  <g
     inkscape:label="Layer 1"
     inkscape:groupmode="layer"
     id="layer1">
    <path
       d="M 129.73273,57.622298 H 75.069382 L 74.61131,36.125558 h 39.8345 v 5.635 h 9.17821 v -5.635 h 4.89169 v -7.51048 H 74.445415 L 73.852441,0.4572181 H 56.848101 L 56.110645,28.615078 H 0.94334299 v 7.51048 H 6.3021032 v 5.635 h 9.1751188 v -5.635 h 40.436777 l -0.556112,21.49674 H -0.26726953 v 7.51048 H 5.0822883 v 5.3505 h 9.1781767 v -5.3505 h 40.906914 l -0.58089,22.25985 H 11.10469 v 7.51479 h 5.112956 v 5.436682 h 9.178179 V 94.907418 H 54.38676 L 50.078957,260.45722 H 79.377146 L 75.858925,94.907418 h 27.897055 v 5.436682 h 9.17816 v -5.436682 h 5.42639 v -7.51479 H 75.702227 l -0.476378,-22.25985 h 39.981991 v 5.3505 h 9.16592 v -5.3505 h 5.35872 z"
       id="path3723"
       inkscape:connector-curvature="0"
       style="stroke-width:0.22748369;fill:#005380;fill-opacity:1"
       inkscape:export-xdpi="96"
       inkscape:export-ydpi="96" />
  </g>
</svg>
