<?xml version="1.0" encoding="UTF-8" standalone="no"?>
<!-- Created with Inkscape (http://www.inkscape.org/) -->

<svg
   xmlns:dc="http://purl.org/dc/elements/1.1/"
   xmlns:cc="http://creativecommons.org/ns#"
   xmlns:rdf="http://www.w3.org/1999/02/22-rdf-syntax-ns#"
   xmlns:svg="http://www.w3.org/2000/svg"
   xmlns="http://www.w3.org/2000/svg"
   xmlns:sodipodi="http://sodipodi.sourceforge.net/DTD/sodipodi-0.dtd"
   xmlns:inkscape="http://www.inkscape.org/namespaces/inkscape"
   width="210mm"
   height="297mm"
   viewBox="0 0 210 297"
   version="1.1"
   id="svg3739"
   inkscape:version="0.92.3 (2405546, 2018-03-11)"
   sodipodi:docname="aaa.svg">
  <defs
     id="defs3733" />
  <sodipodi:namedview
     id="base"
     pagecolor="#ffffff"
     bordercolor="#666666"
     borderopacity="1.0"
     inkscape:pageopacity="0.0"
     inkscape:pageshadow="2"
     inkscape:zoom="0.98994949"
     inkscape:cx="382.43063"
     inkscape:cy="927.40873"
     inkscape:document-units="mm"
     inkscape:current-layer="layer1"
     showgrid="false"
     inkscape:window-width="1920"
     inkscape:window-height="1017"
     inkscape:window-x="-8"
     inkscape:window-y="-8"
     inkscape:window-maximized="1" />
  <metadata
     id="metadata3736">
    <rdf:RDF>
      <cc:Work
         rdf:about="">
        <dc:format>image/svg+xml</dc:format>
        <dc:type
           rdf:resource="http://purl.org/dc/dcmitype/StillImage" />
        <dc:title></dc:title>
      </cc:Work>
    </rdf:RDF>
  </metadata>
  <g
     inkscape:label="Layer 1"
     inkscape:groupmode="layer"
     id="layer1">
    <path
       d="M 5.8208357,2.6688624 H 3.3732481 L 3.3527381,1.968841 h 1.7836166 v 0.1834991 h 0.410959 V 1.968841 h 0.21903 V 1.7242681 H 3.3453091 l -0.02655,-0.9169348 h -0.761381 l -0.03302,0.9169348 H 0.054206 V 1.968841 H 0.294148 V 2.1523401 H 0.70497002 V 1.968841 H 2.5155531 l -0.0249,0.7000214 H 0 V 2.9134353 H 0.23953 V 3.0876687 H 0.650489 V 2.9134353 h 1.8316341 l -0.02601,0.7248709 H 0.509187 V 3.8830193 H 0.73812306 V 4.0600599 H 1.149082 V 3.8830193 H 2.4471701 L 2.2542851,9.274 h 1.311846 l -0.15753,-5.3909807 h 1.2491086 v 0.1770406 h 0.410958 V 3.8830193 h 0.24297 V 3.6383062 H 3.4015841 l -0.02133,-0.7248709 h 1.7902206 v 0.1742334 h 0.410409 V 2.9134353 h 0.239942 z"
       id="path3723"
       inkscape:connector-curvature="0"
       style="stroke-width:0.00868642"
       inkscape:export-xdpi="96"
       inkscape:export-ydpi="96" />
  </g>
</svg>
