<?xml version="1.0" encoding="UTF-8" standalone="no"?>
<!-- Generator: Adobe Illustrator 22.1.0, SVG Export Plug-In . SVG Version: 6.00 Build 0)  -->

<svg
   xmlns:dc="http://purl.org/dc/elements/1.1/"
   xmlns:cc="http://creativecommons.org/ns#"
   xmlns:rdf="http://www.w3.org/1999/02/22-rdf-syntax-ns#"
   xmlns:svg="http://www.w3.org/2000/svg"
   xmlns="http://www.w3.org/2000/svg"
   xmlns:sodipodi="http://sodipodi.sourceforge.net/DTD/sodipodi-0.dtd"
   xmlns:inkscape="http://www.inkscape.org/namespaces/inkscape"
   version="1.1"
   id="Layer_3"
   x="0px"
   y="0px"
   viewBox="0 0 64 64"
   style="enable-background:new 0 0 64 64;"
   xml:space="preserve"
   width="512"
   height="512"
   sodipodi:docname="power-plant.svg"
   inkscape:version="0.92.3 (2405546, 2018-03-11)"><metadata
   id="metadata5356"><rdf:RDF><cc:Work
       rdf:about=""><dc:format>image/svg+xml</dc:format><dc:type
         rdf:resource="http://purl.org/dc/dcmitype/StillImage" /></cc:Work></rdf:RDF></metadata><defs
   id="defs5354" /><sodipodi:namedview
   pagecolor="#ffffff"
   bordercolor="#666666"
   borderopacity="1"
   objecttolerance="10"
   gridtolerance="10"
   guidetolerance="10"
   inkscape:pageopacity="0"
   inkscape:pageshadow="2"
   inkscape:window-width="1920"
   inkscape:window-height="1017"
   id="namedview5352"
   showgrid="false"
   inkscape:zoom="1.3037281"
   inkscape:cx="262.07559"
   inkscape:cy="281.44977"
   inkscape:window-x="-8"
   inkscape:window-y="-8"
   inkscape:window-maximized="1"
   inkscape:current-layer="g5349" />
<g
   id="g5349">
	<path
   style="fill:#008000"
   d="m 31.986543,19.986543 v -8 h -2 v 3 l -6.4,-4.8 c -0.173,-0.13 -0.383,-0.1999996 -0.6,-0.1999996 h -2 v -2 h 1.72 l 2.228,-6.684 c 0.103,-0.305 0.051,-0.641 -0.137,-0.901 -0.188,-0.261 -0.49,-0.415 -0.811,-0.415 H 7.9865434 c -0.321,0 -0.623,0.154 -0.812,0.415 -0.187,0.261 -0.239,0.597 -0.136,0.901 l 2.228,6.684 h 1.7199996 v 2 H 8.9865434 c -0.217,0 -0.427,0.07 -0.6,0.1999996 l -6.4,4.8 v -3 h -2 v 8 h 2 v -2 h 8.9999996 v 4 H 8.9865434 c -0.217,0 -0.427,0.07 -0.6,0.2 l -6.4,4.8 v -3 h -2 v 8 h 2 v -2 h 8.9999996 v 4 H 8.9865434 c -0.217,0 -0.427,0.07 -0.6,0.2 l -6.4,4.8 v -3 h -2 v 8 h 2 v -2 h 8.2899996 l -8.1609996,14.51 1.742,0.98 6.4629996,-11.49 h 1.252 l 3,3 -7.2929996,7.293 1.414,1.414 7.2929996,-7.293 7.293,7.293 1.414,-1.414 -7.293,-7.293 3,-3 h 1.252 l 6.463,11.49 1.742,-0.98 -8.161,-14.51 h 8.29 v 2 h 2 v -8 h -2 v 3 l -6.4,-4.8 c -0.173,-0.13 -0.383,-0.2 -0.6,-0.2 h -2 v -4 h 9 v 2 h 2 v -8 h -2 v 3 l -6.4,-4.8 c -0.173,-0.13 -0.383,-0.2 -0.6,-0.2 h -2 v -4 h 9 v 2 z M 9.3745434,1.9865434 H 22.599543 l -1.333,4 h -10.559 z m 3.6119996,6 h 6 v 2 h -6 z m 1.999,3.9999996 h 4.001 v 3 z m 2.001,4 h -4 v -3 z m -12.9999996,0 5.333,-4 h 1.6669996 v 4 z m 12.9999996,2 -4,3 v -3 z m -2,6 h 4 v 3 z m 2,4 h -4 v -3 z m -12.9999996,0 5.333,-4 h 1.6669996 v 4 z m 12.9999996,2 -4,3 v -3 z m -2,6 h 4 v 3 z m 2.001,4 h -4.001 v -3 z m -7.6679996,-4 h 1.6669996 v 4 H 3.9865434 Z m 6.6669996,11.586 -1.586,-1.586 h 3.172 z m 4.541,-3.586 h -9.081 l 1.125,-2 h 6.831 z m 2.126,-8 5.333,4 h -7 v -4 z m -7.667,-2 4,-3 v 3 z m 7.667,-10 5.333,4 h -7 v -4 z m -7.667,-2 4,-3 v 3 z m 6,-6 v -4 h 1.667 l 5.333,4 z"
   id="path5331"
   inkscape:connector-curvature="0" />
	
	<rect
   x="-0.013456599"
   y="55.986542"
   style="fill:#008000"
   width="32"
   height="4"
   id="rect5337" />
	
	
	
	
	
</g>
</svg>