<?xml version="1.0" encoding="UTF-8" standalone="no"?>
<!-- Created with Inkscape (http://www.inkscape.org/) -->

<svg
   xmlns:dc="http://purl.org/dc/elements/1.1/"
   xmlns:cc="http://creativecommons.org/ns#"
   xmlns:rdf="http://www.w3.org/1999/02/22-rdf-syntax-ns#"
   xmlns:svg="http://www.w3.org/2000/svg"
   xmlns="http://www.w3.org/2000/svg"
   xmlns:sodipodi="http://sodipodi.sourceforge.net/DTD/sodipodi-0.dtd"
   xmlns:inkscape="http://www.inkscape.org/namespaces/inkscape"
   width="210mm"
   height="297mm"
   viewBox="0 0 210 297"
   version="1.1"
   id="svg181"
   inkscape:version="0.92.3 (2405546, 2018-03-11)"
   sodipodi:docname="ToMay.svg">
  <defs
     id="defs175" />
  <sodipodi:namedview
     id="base"
     pagecolor="#ffffff"
     bordercolor="#666666"
     borderopacity="1.0"
     inkscape:pageopacity="0.0"
     inkscape:pageshadow="2"
     inkscape:zoom="0.7"
     inkscape:cx="-42.840651"
     inkscape:cy="884.35588"
     inkscape:document-units="mm"
     inkscape:current-layer="layer1"
     showgrid="false"
     inkscape:window-width="1920"
     inkscape:window-height="1017"
     inkscape:window-x="-8"
     inkscape:window-y="-8"
     inkscape:window-maximized="1" />
  <metadata
     id="metadata178">
    <rdf:RDF>
      <cc:Work
         rdf:about="">
        <dc:format>image/svg+xml</dc:format>
        <dc:type
           rdf:resource="http://purl.org/dc/dcmitype/StillImage" />
        <dc:title></dc:title>
      </cc:Work>
    </rdf:RDF>
  </metadata>
  <g
     inkscape:label="Layer 1"
     inkscape:groupmode="layer"
     id="layer1">
    <path
       d="m 104.59257,0.18217336 c -7.023816,0 -14.75685,1.64140004 -22.135407,5.35721304 -6.222139,3.1352 -11.971144,8.5068126 -16.145852,15.4759066 -7.401606,0.95028 -14.737575,2.346906 -20.312505,6.845259 -6.940692,5.59946 -12.239559,14.40756 -12.239559,24.702634 h 16.666647 c 0,-3.03802 1.524094,-6.25422 5.208345,-9.226367 3.684283,-2.973227 9.316504,-5.059527 15.625009,-5.059527 h 5.208311 l 2.343626,-5.357214 c 1.780785,-4.070366 5.503589,-7.644719 10.416657,-10.119052 4.913103,-2.472893 10.721732,-3.57076 15.364608,-3.57076 z M 133.75925,14.467706 c 0,2.681667 -3.02141,7.62852 -9.89584,11.904787 -6.8745,4.276272 -16.40709,7.142952 -23.43751,7.142952 v 19.047741 c 10.46956,0 21.66613,-3.264794 31.25001,-9.226367 9.58384,-5.961574 18.74999,-15.358201 18.74999,-28.869113 z M 17.092572,66.848717 v 19.047741 h 8.333322 v 19.047382 l -24.9999997,76.1906 v 19.04773 H 133.75925 v -19.04773 l -25,-76.1906 V 85.896458 h 8.33332 V 66.848717 Z m 66.666672,42.857333 c 9.999999,6.66636 15.885417,19.10713 15.885417,32.44023 h -23.43751 c -0.22365,-3.51676 -1.852278,-6.86759 -4.166673,-8.63101 z m -32.55209,0.89268 11.718739,23.80959 c -2.499841,1.90416 -4.166646,5.71429 -4.166646,9.52369 H 34.540476 c 0,-15.23798 6.666678,-27.61899 16.666678,-33.33328 z m 15.885417,25.89302 c 3.333322,0 5.729166,2.73925 5.729166,6.54757 0,3.8094 -2.395907,6.54759 -5.729166,6.54759 -3.333323,0 -5.729166,-2.73927 -5.729166,-6.54759 0,-3.80976 2.395905,-6.54757 5.729166,-6.54757 z m -4.166678,15.17857 c 1.666772,0.95028 2.500158,1.78538 4.166678,1.78538 1.666771,0 3.333322,-0.8351 4.166677,-1.78538 l 11.718738,23.80922 c -4.166673,3.80976 -10.052091,4.7622 -15.885415,4.7622 -5.833323,0 -11.718741,-1.90416 -15.885417,-4.7622 z"
       id="path156"
       style="fill:#000080;stroke-width:8.90870762"
       inkscape:connector-curvature="0" />
  </g>
</svg>
