<?xml version="1.0" encoding="UTF-8" standalone="no"?>
<!-- Created with Inkscape (http://www.inkscape.org/) -->

<svg
   xmlns:dc="http://purl.org/dc/elements/1.1/"
   xmlns:cc="http://creativecommons.org/ns#"
   xmlns:rdf="http://www.w3.org/1999/02/22-rdf-syntax-ns#"
   xmlns:svg="http://www.w3.org/2000/svg"
   xmlns="http://www.w3.org/2000/svg"
   xmlns:sodipodi="http://sodipodi.sourceforge.net/DTD/sodipodi-0.dtd"
   xmlns:inkscape="http://www.inkscape.org/namespaces/inkscape"
   width="210mm"
   height="297mm"
   viewBox="0 0 210 297"
   version="1.1"
   id="svg8"
   inkscape:version="0.92.4 (5da689c313, 2019-01-14)"
   sodipodi:docname="TramCot.svg">
  <defs
     id="defs2" />
  <sodipodi:namedview
     id="base"
     pagecolor="#ffffff"
     bordercolor="#666666"
     borderopacity="1.0"
     inkscape:pageopacity="0.0"
     inkscape:pageshadow="2"
     inkscape:zoom="0.35"
     inkscape:cx="542.82855"
     inkscape:cy="785.34486"
     inkscape:document-units="mm"
     inkscape:current-layer="layer1"
     showgrid="false"
     inkscape:window-width="1920"
     inkscape:window-height="1017"
     inkscape:window-x="-8"
     inkscape:window-y="-8"
     inkscape:window-maximized="1" />
  <metadata
     id="metadata5">
    <rdf:RDF>
      <cc:Work
         rdf:about="">
        <dc:format>image/svg+xml</dc:format>
        <dc:type
           rdf:resource="http://purl.org/dc/dcmitype/StillImage" />
        <dc:title></dc:title>
      </cc:Work>
    </rdf:RDF>
  </metadata>
  <g
     inkscape:label="Layer 1"
     inkscape:groupmode="layer"
     id="layer1">
    <path
       inkscape:connector-curvature="0"
       style="fill:#008080;stroke-width:0.1042401"
       d="m 153.93593,207.3507 h 8.90749 l -6.1667,20.67272 19.87052,-29.25385 h -10.62048 l 5.82416,-15.21203 h -8.56491 z"
       id="path3769" />
    <path
       style="fill:#008080;stroke-width:0.1042401"
       inkscape:connector-curvature="0"
       d="m 199.84375,247.91607 h -73.65806 c -6.85192,0 -12.33343,-6.24086 -12.33343,-14.04186 v -62.40825 c 0,-7.80105 5.48151,-14.04185 12.33343,-14.04185 h 73.65806 c 6.85192,0 12.33346,6.2408 12.33346,14.04185 v 62.40825 c -0.34261,7.801 -5.82414,14.04186 -12.33346,14.04186 z m -73.65806,-81.13073 c -2.39816,0 -4.45374,2.3403 -4.45374,5.07066 v 62.40825 c 0,2.73037 1.71298,4.68064 4.11116,4.68064 h 73.65806 c 2.39817,0 4.11115,-1.95027 4.11115,-4.68064 V 171.856 c 0,-2.73036 -1.71298,-4.68061 -4.11115,-4.68061 h -73.31548 z"
       id="path3771" />
    <path
       style="fill:#008080;stroke-width:0.1042401"
       inkscape:connector-curvature="0"
       d="m 191.96407,233.0941 h -58.24125 c -1.713,0 -3.08339,-1.5602 -3.08339,-3.51047 v -53.43706 c 0,-1.95022 1.37039,-3.51045 3.08339,-3.51045 h 58.58384 c 1.71296,0 3.08335,1.56023 3.08335,3.51045 v 53.43706 c -0.34259,1.95027 -1.71299,3.51047 -3.42594,3.51047 z m -58.24125,-59.28784 c -1.02782,0 -2.05559,1.17017 -2.05559,2.34031 v 53.43706 c 0,1.17017 1.02777,2.3403 2.05559,2.3403 h 58.58384 c 1.02778,0 2.05557,-1.17013 2.05557,-2.3403 v -53.43706 c 0,-1.17014 -1.02779,-2.34031 -2.05557,-2.34031 z m 15.07418,-28.8638 h -13.70382 v -6.63087 H 148.797 Z m -11.30565,-2.73036 h 8.90749 v -1.17015 h -8.90749 z"
       id="path3773" />
    <path
       style="fill:#008080;stroke-width:0.1042401"
       inkscape:connector-curvature="0"
       d="m 148.797,150.01313 h -13.70382 v -6.63087 H 148.797 Z m -11.30565,-2.73036 h 8.90749 v -1.17015 h -8.90749 z"
       id="path3775" />
    <path
       style="fill:#008080;stroke-width:0.1042401"
       inkscape:connector-curvature="0"
       d="m 148.797,153.88633 h -13.70382 v -7.02091 H 148.797 Z m -11.30565,-3.1204 h 8.90749 v -1.17016 h -8.90749 z m 8.90749,-12.0916 h -8.56488 v -6.24083 h 8.56488 z m -6.16673,-2.73035 h 3.76855 v -0.78011 h -3.76855 z"
       id="path3777" />
    <path
       style="fill:#008080;stroke-width:0.1042401"
       inkscape:connector-curvature="0"
       d="m 146.39884,159.37437 h -8.56488 v -5.85078 h 8.56488 z m -6.16673,-2.73036 h 3.76855 v -0.39006 h -3.76855 z"
       id="path3779" />
    <path
       style="fill:#008080;stroke-width:0.1042401"
       inkscape:connector-curvature="0"
       d="M 169.69533,144.94246 H 155.9915 v -6.63087 h 13.70383 z m -11.30566,-2.73036 h 8.90749 v -1.17015 h -8.90749 z"
       id="path3781" />
    <path
       style="fill:#008080;stroke-width:0.1042401"
       inkscape:connector-curvature="0"
       d="M 169.69533,150.01313 H 155.9915 v -6.63087 h 13.70383 z m -11.30566,-2.73036 h 8.90749 v -1.17015 h -8.90749 z"
       id="path3783" />
    <path
       style="fill:#008080;stroke-width:0.1042401"
       inkscape:connector-curvature="0"
       d="M 169.69533,153.88633 H 155.9915 v -7.02091 h 13.70383 z m -11.30566,-3.1204 h 8.90749 v -1.17016 h -8.90749 z m 8.90749,-12.0916 h -8.90749 v -6.24083 h 8.56489 v 6.24083 z m -6.5093,-2.73035 h 3.76853 v -0.78011 h -3.76853 z"
       id="path3785" />
    <path
       style="fill:#008080;stroke-width:0.1042401"
       inkscape:connector-curvature="0"
       d="m 167.29716,159.37437 h -8.90749 v -5.85078 h 8.56489 v 5.85078 z m -6.5093,-2.73036 h 3.76853 v -0.39006 h -3.76853 z"
       id="path3787" />
    <path
       style="fill:#008080;stroke-width:0.1042401"
       inkscape:connector-curvature="0"
       d="m 190.59367,144.94246 h -13.70381 v -6.63087 h 13.70381 z m -11.30565,-2.73036 h 8.9075 v -1.17015 h -8.9075 z"
       id="path3789" />
    <path
       style="fill:#008080;stroke-width:0.1042401"
       inkscape:connector-curvature="0"
       d="m 190.59367,150.01313 h -13.70381 v -6.63087 h 13.70381 z m -11.30565,-2.73036 h 8.9075 v -1.17015 h -8.9075 z"
       id="path3791" />
    <path
       style="fill:#008080;stroke-width:0.1042401"
       inkscape:connector-curvature="0"
       d="m 190.59367,153.88633 h -13.70381 v -7.02091 h 13.70381 z m -11.30565,-3.1204 h 8.9075 v -1.17016 h -8.9075 z m 8.9075,-12.0916 h -8.56491 v -6.24083 h 8.56491 z m -6.50932,-2.73035 h 3.76853 v -0.78011 h -3.76853 z"
       id="path3793" />
    <path
       style="fill:#008080;stroke-width:0.1042401"
       inkscape:connector-curvature="0"
       d="m 188.19552,159.37437 h -8.56491 v -5.85078 h 8.56491 z m -6.50932,-2.73036 h 3.76853 v -0.39006 h -3.76853 z"
       id="path3795" />
    <g
       transform="matrix(0.40412246,0,0,0.51854824,0.06001297,-0.73962936)"
       style="fill:#000080"
       id="g3869">
      <path
         inkscape:connector-curvature="0"
         d="m 72.097656,320.00391 c -4.417968,0 -8,-3.58204 -8,-8 v -24 c 0,-4.41797 3.582032,-8 8,-8 4.417969,0 8,3.58203 8,8 v 24 c 0,4.41796 -3.582031,8 -8,8 z m 0,0"
         id="path3857"
         style="fill:#000080" />
      <path
         inkscape:connector-curvature="0"
         d="m 72.097656,224.00391 c -4.417968,0 -8,-3.58204 -8,-8 v -24 c 0,-4.41797 3.582032,-8 8,-8 4.417969,0 8,3.58203 8,8 v 24 c 0,4.41796 -3.582031,8 -8,8 z m 0,0"
         id="path3859"
         style="fill:#000080" />
      <path
         inkscape:connector-curvature="0"
         d="m 72.097656,128.00391 c -4.417968,0 -8,-3.58203 -8,-8 V 96.003906 c 0,-4.417968 3.582032,-8 8,-8 4.417969,0 8,3.582032 8,8 v 24.000004 c 0,4.41797 -3.582031,8 -8,8 z m 0,0"
         id="path3861"
         style="fill:#000080" />
      <path
         inkscape:connector-curvature="0"
         d="m 312.09766,320.00391 c -4.41797,0 -8,-3.58204 -8,-8 v -24 c 0,-4.41797 3.58203,-8 8,-8 4.41796,0 8,3.58203 8,8 v 24 c 0,4.41796 -3.58204,8 -8,8 z m 0,0"
         id="path3863"
         style="fill:#000080" />
      <path
         inkscape:connector-curvature="0"
         d="m 312.09766,224.00391 c -4.41797,0 -8,-3.58204 -8,-8 v -24 c 0,-4.41797 3.58203,-8 8,-8 4.41796,0 8,3.58203 8,8 v 24 c 0,4.41796 -3.58204,8 -8,8 z m 0,0"
         id="path3865"
         style="fill:#000080" />
      <path
         inkscape:connector-curvature="0"
         d="m 312.09766,128.00391 c -4.41797,0 -8,-3.58203 -8,-8 V 96.003906 c 0,-4.417968 3.58203,-8 8,-8 4.41796,0 8,3.582032 8,8 v 24.000004 c 0,4.41797 -3.58204,8 -8,8 z m 0,0"
         id="path3867"
         style="fill:#000080" />
    </g>
    <path
       inkscape:connector-curvature="0"
       style="fill:#000080;stroke-width:0.45777392"
       d="m 77.691002,152.75268 c -0.857195,-0.002 -1.679639,-0.43752 -2.285825,-1.21535 L 56.007301,126.64702 c -1.224985,-1.62858 -1.207637,-4.21524 0.03938,-5.81544 1.247082,-1.60021 3.264551,-1.62249 4.532163,-0.0507 l 16.895797,21.67773 13.902765,-21.40023 c 0.729314,-1.17889 1.899061,-1.76023 3.05775,-1.51513 1.157126,0.24509 2.121641,1.27611 2.517881,2.69198 0.39623,1.41791 0.16259,2.99989 -0.610927,4.13219 l -16.1649,24.89032 c -0.580922,0.89734 -1.428645,1.43612 -2.336342,1.49082 z m 0,0"
       id="path3871" />
    <path
       inkscape:connector-curvature="0"
       style="fill:#000080;stroke-width:0.45777392"
       d="m 77.691002,127.86236 c -0.857195,-0.002 -1.679639,-0.43752 -2.285825,-1.21534 L 56.007301,101.7567 c -1.224985,-1.62857 -1.207637,-4.215235 0.03938,-5.815445 1.247082,-1.60021 3.264551,-1.622478 4.532163,-0.05069 L 77.474637,117.56831 91.377402,96.168064 c 1.15554,-1.69541 3.154042,-1.897968 4.502176,-0.455752 1.348125,1.442216 1.553357,4.000521 0.462528,5.764798 l -16.164894,24.89031 c -0.580922,0.89733 -1.428645,1.43614 -2.336341,1.49082 z m 0,0"
       id="path3873" />
    <path
       inkscape:connector-curvature="0"
       style="fill:#000080;stroke-width:0.45777392"
       d="m 77.691002,102.97204 c -0.857195,-0.002 -1.679639,-0.43753 -2.285825,-1.21534 L 56.007301,76.866386 c -1.224985,-1.628572 -1.207637,-4.215236 0.03938,-5.815442 1.247082,-1.600209 3.264551,-1.622489 4.532163,-0.05066 L 77.474633,92.678032 91.377402,71.277789 c 1.15554,-1.695409 3.154042,-1.897962 4.502176,-0.45575 1.348125,1.44221 1.553357,4.000519 0.462528,5.764794 L 80.177209,101.47715 c -0.580922,0.89733 -1.428645,1.43613 -2.336341,1.49082 z m 0,0"
       id="path3875" />
    <path
       inkscape:connector-curvature="0"
       style="fill:#000080;stroke-width:0.45777392"
       d="m 77.691002,78.081734 c -0.857195,-0.0018 -1.679639,-0.437529 -2.285825,-1.215348 L 56.007301,51.976068 c -1.224985,-1.628571 -1.207637,-4.215233 0.03938,-5.815444 1.247082,-1.600203 3.264551,-1.622488 4.532163,-0.05063 L 77.474633,67.787747 91.377402,46.387504 c 1.15554,-1.695407 3.154042,-1.897966 4.502176,-0.455754 1.348125,1.44221 1.553357,4.000517 0.462528,5.764795 l -16.164897,24.89032 c -0.580922,0.897332 -1.428645,1.436133 -2.336341,1.490825 z m 0,0"
       id="path3877" />
    <path
       inkscape:connector-curvature="0"
       style="fill:#000080;stroke-width:0.45777392"
       d="m 77.691002,53.191414 c -0.857195,-0.0018 -1.679639,-0.437521 -2.285825,-1.215346 L 56.007301,27.085746 C 55.167482,26.04258 54.831234,24.501108 55.126438,23.0508 c 0.295206,-1.450317 1.179221,-2.582619 2.309493,-2.963429 1.130288,-0.378782 2.331606,0.05265 3.143008,1.132301 L 77.474732,42.897423 91.377478,21.497181 c 0.72933,-1.178892 1.899061,-1.760232 3.057749,-1.515139 1.157135,0.245093 2.121659,1.27612 2.517898,2.691994 0.396214,1.417911 0.162573,2.999882 -0.610927,4.132183 L 80.177293,51.696535 c -0.580922,0.897333 -1.42863,1.436138 -2.336328,1.490826 z m 0,0"
       id="path3879" />
    <path
       inkscape:connector-curvature="0"
       style="fill:#000080;stroke-width:0.45777392"
       d="m 77.691002,198.38492 c -1.182386,0 -2.271617,-0.83048 -2.83833,-2.16128 L 55.454797,150.59138 c -0.546198,-1.28623 -0.524115,-2.84595 0.0584,-4.10585 0.582492,-1.25991 1.638582,-2.03165 2.779911,-2.02963 h 38.795757 c 1.141331,-0.002 2.198982,0.76972 2.781508,2.02963 0.582487,1.2599 0.604607,2.81962 0.05845,4.10585 l -19.397921,45.63226 c -0.566714,1.3308 -1.655958,2.16128 -2.8399,2.16128 z m -13.950126,-45.63224 13.950126,32.82045 13.951699,-32.82045 z m 0,0"
       id="path3881" />
    <path
       inkscape:connector-curvature="0"
       style="fill:#000080;stroke-width:0.45777392"
       d="m 122.95272,248.16557 c -1.37497,-0.002 -2.5984,-1.11813 -3.05145,-2.78516 L 94.037434,149.96752 c -0.119998,-0.43756 -0.179956,-0.89939 -0.181534,-1.36323 V 28.301099 H 61.526094 V 148.60429 c 0,0.46384 -0.0616,0.92567 -0.179949,1.36323 l -25.863853,95.41289 c -0.618799,2.10658 -2.434191,3.19634 -4.090149,2.45498 -1.655957,-0.73934 -2.549444,-3.04039 -2.014302,-5.18346 L 55.060146,147.90141 V 24.152714 c 0,-2.290935 1.447574,-4.148386 3.23298,-4.148386 h 38.795751 c 1.785394,0 3.232983,1.857451 3.232983,4.148386 V 147.90141 l 25.68387,94.75052 c 0.34415,1.26801 0.18786,2.67174 -0.41833,3.76759 -0.60619,1.09378 -1.58806,1.74402 -2.63468,1.74605 z m 0,0"
       id="path3883" />
    <path
       inkscape:connector-curvature="0"
       style="fill:#000080;stroke-width:0.45777392"
       d="M 126.18568,152.75268 H 29.196292 c -1.423879,0 -2.680462,-1.19712 -3.094061,-2.94722 -0.413581,-1.74809 0.115206,-3.63997 1.300781,-4.65276 l 29.096821,-24.89031 c 0.531989,-0.45373 1.155538,-0.6968 1.793293,-0.6968 h 38.795751 c 0.639327,0 1.262875,0.24307 1.794858,0.6968 l 29.096825,24.89031 c 1.18552,1.01279 1.71436,2.90467 1.30077,4.65276 -0.4136,1.7501 -1.67016,2.94722 -3.09565,2.94722 z M 39.86609,144.4559 h 75.65139 L 96.119617,127.86236 H 59.263964 Z m 0,0"
       id="path3885" />
    <path
       inkscape:connector-curvature="0"
       style="fill:#000080;stroke-width:0.45777392"
       d="M 126.18568,102.97204 H 29.196292 c -1.423879,0 -2.680462,-1.19711 -3.094061,-2.94721 -0.413581,-1.748077 0.115206,-3.639971 1.300781,-4.652758 L 56.499833,70.481759 c 0.531989,-0.453732 1.155538,-0.696801 1.793293,-0.696801 h 38.795751 c 0.639327,0 1.262875,0.243069 1.794858,0.696801 l 29.096825,24.890313 c 1.18552,1.012787 1.71436,2.904681 1.30077,4.652758 -0.4136,1.7501 -1.67016,2.94721 -3.09565,2.94721 z M 39.86609,94.675273 h 75.65139 L 96.119617,78.081734 H 59.263964 Z m 0,0"
       id="path3887" />
    <path
       inkscape:connector-curvature="0"
       style="fill:#000080;stroke-width:0.45777392"
       d="M 126.18568,53.191414 H 29.196292 c -1.423879,0 -2.680462,-1.19712 -3.094061,-2.947218 -0.413581,-1.748076 0.115206,-3.639966 1.300781,-4.652755 L 56.499833,20.701126 c 0.531989,-0.453733 1.155538,-0.696798 1.793293,-0.696798 h 38.795751 c 0.639327,0 1.262875,0.243065 1.794858,0.696798 l 29.096825,24.890315 c 1.18552,1.012789 1.71436,2.904679 1.30077,4.652755 -0.4136,1.750098 -1.67016,2.947218 -3.09565,2.947218 z M 39.86609,44.89464 h 75.65139 L 96.119617,28.301099 H 59.263964 Z m 0,0"
       id="path3889" />
    <path
       inkscape:connector-curvature="0"
       style="fill:#000080;stroke-width:0.45777392"
       d="M 77.691002,28.301099 H 58.293126 c -1.535979,0 -2.86044,-1.387523 -3.16827,-3.319925 L 51.891889,4.2392447 c -0.258899,-1.6670504 0.301509,-3.37056237 1.414421,-4.29423219 1.112926,-0.92366088 2.552613,-0.88315297 3.632354,0.10532952 L 79.569522,20.792271 c 1.133455,1.051277 1.610178,2.918857 1.182387,4.628452 -0.426223,1.707558 -1.662278,2.870238 -3.060907,2.880367 z M 60.945186,20.004328 h 6.656956 l -7.760423,-7.119916 z m 0,0"
       id="path3891" />
    <path
       inkscape:connector-curvature="0"
       style="fill:#000080;stroke-width:0.45777392"
       d="M 97.088877,28.301099 H 77.691002 c -1.404963,0 -2.65049,-1.166735 -3.078283,-2.884422 -0.429374,-1.717697 0.05682,-3.593387 1.199735,-4.640609 L 98.443325,0.03413885 c 1.082911,-0.99252883 2.525765,-1.03304563 3.641825,-0.103293 1.1145,0.92771617 1.67176,2.63730215 1.40496,4.30839885 l -3.23298,20.7419383 c -0.306247,1.932402 -1.630708,3.319916 -3.168253,3.319916 z m -9.307446,-8.296771 h 6.65697 l 1.108178,-7.119916 z m 0,0"
       id="path3893" />
    <path
       inkscape:connector-curvature="0"
       style="fill:#000080;stroke-width:0.45777392"
       d="m 122.95272,248.16557 c -0.77195,0 -1.51862,-0.35651 -2.1043,-1.00064 L 77.691002,199.69952 34.535135,247.16493 c -0.869807,1.03101 -2.109013,1.3693 -3.231382,0.88315 -1.120831,-0.48819 -1.946441,-1.72378 -2.148489,-3.22067 -0.202062,-1.49692 0.249411,-3.01608 1.176053,-3.96002 l 45.261712,-49.78061 c 1.210791,-1.32678 2.99303,-1.32678 4.20382,0 l 45.261721,49.78061 c 1.02608,1.13028 1.39548,2.96139 0.92663,4.58792 -0.47041,1.6286 -1.67963,2.71026 -3.03248,2.71026 z m 0,0"
       id="path3895" />
    <path
       inkscape:connector-curvature="0"
       style="fill:#000080;stroke-width:0.45777392"
       d="M 106.78781,198.38492 H 48.594182 c -1.785392,0 -3.232981,-1.85745 -3.232981,-4.14839 0,-2.29093 1.447589,-4.14838 3.232981,-4.14838 h 58.193628 c 1.7854,0 3.23299,1.85745 3.23299,4.14838 0,2.29094 -1.44759,4.14839 -3.23299,4.14839 z m 0,0"
       id="path3897" />
    <path
       inkscape:connector-curvature="0"
       style="fill:#000080;stroke-width:0.45777392"
       d="M 152.04954,248.16557 H 3.3324685 c -1.7854062,0 -3.23298158,-1.85747 -3.23298158,-4.14841 0,-2.29091 1.44757538,-4.14837 3.23298158,-4.14837 H 152.04954 c 1.7854,0 3.23297,1.85746 3.23297,4.14837 0,2.29094 -1.44757,4.14841 -3.23297,4.14841 z m 0,0"
       id="path3899" />
  </g>
</svg>
