<?xml version="1.0" encoding="UTF-8" standalone="no"?>
<!-- Created with Inkscape (http://www.inkscape.org/) -->

<svg
   xmlns:dc="http://purl.org/dc/elements/1.1/"
   xmlns:cc="http://creativecommons.org/ns#"
   xmlns:rdf="http://www.w3.org/1999/02/22-rdf-syntax-ns#"
   xmlns:svg="http://www.w3.org/2000/svg"
   xmlns="http://www.w3.org/2000/svg"
   xmlns:sodipodi="http://sodipodi.sourceforge.net/DTD/sodipodi-0.dtd"
   xmlns:inkscape="http://www.inkscape.org/namespaces/inkscape"
   width="210mm"
   height="297mm"
   viewBox="0 0 210 297"
   version="1.1"
   id="svg224"
   inkscape:version="0.92.3 (2405546, 2018-03-11)"
   sodipodi:docname="TramBienAp.svg">
  <defs
     id="defs218" />
  <sodipodi:namedview
     id="base"
     pagecolor="#ffffff"
     bordercolor="#666666"
     borderopacity="1.0"
     inkscape:pageopacity="0.0"
     inkscape:pageshadow="2"
     inkscape:zoom="0.49497475"
     inkscape:cx="794.21903"
     inkscape:cy="692.70159"
     inkscape:document-units="mm"
     inkscape:current-layer="layer1"
     showgrid="false"
     inkscape:window-width="1920"
     inkscape:window-height="1017"
     inkscape:window-x="-8"
     inkscape:window-y="-8"
     inkscape:window-maximized="1" />
  <metadata
     id="metadata221">
    <rdf:RDF>
      <cc:Work
         rdf:about="">
        <dc:format>image/svg+xml</dc:format>
        <dc:type
           rdf:resource="http://purl.org/dc/dcmitype/StillImage" />
        <dc:title></dc:title>
      </cc:Work>
    </rdf:RDF>
  </metadata>
  <g
     inkscape:label="Layer 1"
     inkscape:groupmode="layer"
     id="layer1">
    <path
       style="fill:#800080;stroke-width:0.13229166"
       inkscape:connector-curvature="0"
       d="m 184.96746,195.52693 h 10.90097 v 5.90573 h -10.90097 z m -34.23162,0 h 10.9011 v 5.90573 h -10.9011 z m 34.23162,-78.32033 h 10.90097 v 2.84843 h -10.90097 z m -17.72333,0 h 10.90097 v 2.84843 h -10.90097 z m -16.50829,0 h 10.9011 v 2.95294 h -10.9011 z m -17.03248,15.3396 h 4.837 v 48.6957 h -4.837 z m 73.14537,0 h 4.837 v 48.6957 h -4.837 z m 0,55.06793 c 0,3.37936 -3.24751,6.11895 -7.25396,6.11895 h -53.80059 c -4.00618,0 -7.25395,-2.73959 -7.25395,-6.11895 v -61.4403 c 0,-3.37936 3.24777,-6.11894 7.25395,-6.11894 h 53.80059 c 4.00645,0 7.25396,2.73958 7.25396,6.11894 z m -5.10899,-58.68041 h -58.27843 v 1.2996 h 58.27843 z m 0,54.62106 h -58.27843 v 1.2996 h 58.27843 z m -57.23262,-52.84183 v 52.37939 h 1.29965 v -52.37939 z m 2.89822,0 v 52.37939 h 1.29966 v -52.37939 z m 2.8985,0 v 52.37939 h 1.29965 v -52.37939 z m 2.89836,0 v 52.37939 h 1.29965 v -52.37939 z m 2.89836,0 v 52.37939 h 1.29965 v -52.37939 z m 2.89849,0 v 52.37939 h 1.29966 v -52.37939 z m 2.89836,0 v 52.37939 h 1.29966 v -52.37939 z m 2.8985,0 v 52.37939 h 1.29965 v -52.37939 z m 2.89822,0 v 52.37939 h 1.29966 v -52.37939 z m 2.8985,0 v 52.37939 h 1.29965 v -52.37939 z m 2.89836,0 v 52.37939 h 1.29965 v -52.37939 z m 2.89849,0 v 52.37939 h 1.29965 v -52.37939 z m 2.89836,0 v 52.37939 h 1.29965 v -52.37939 z m 2.89836,0 v 52.37939 h 1.29965 v -52.37939 z m 2.8985,0 v 52.37939 h 1.29965 v -52.37939 z m 2.89822,0 v 52.37939 h 1.29965 v -52.37939 z m 2.8985,0 v 52.37939 h 1.29965 v -52.37939 z m 2.89836,0 v 52.37939 h 1.29965 v -52.37939 z m 2.89849,0 v 52.37939 h 1.29965 v -52.37939 z m 2.89836,0 v 52.37939 h 1.29965 v -52.37939 z"
       id="path199" />
    <path
       d="m 104.53668,0.28962542 c -7.023818,0 -14.756853,1.64139998 -22.135411,5.35721998 -6.222137,3.1352 -11.971144,8.5068096 -16.145851,15.4758996 -7.401605,0.95028 -14.737575,2.34691 -20.312504,6.84526 -6.940693,5.59946 -12.239559,14.40756 -12.239559,24.70264 h 16.666647 c 0,-3.03802 1.524092,-6.25422 5.208344,-9.22637 3.684283,-2.97323 9.316505,-5.05953 15.625011,-5.05953 h 5.208309 l 2.343627,-5.35721 c 1.780786,-4.07037 5.50359,-7.64472 10.416656,-10.11905 4.913104,-2.4729 10.721732,-3.57076 15.364611,-3.57076 z M 133.70336,14.575165 c 0,2.68166 -3.02141,7.62852 -9.89584,11.90478 -6.8745,4.27627 -16.40709,7.14296 -23.43751,7.14296 v 19.04774 c 10.46956,0 21.66613,-3.2648 31.25001,-9.22637 9.58384,-5.96157 18.74999,-15.3582 18.74999,-28.86911 z M 17.036675,66.956173 v 19.04774 h 8.33333 V 105.0513 L 0.37000518,181.2419 v 19.04773 H 133.70336 V 181.2419 l -25,-76.1906 V 86.003913 h 8.33332 v -19.04774 z m 66.666678,42.857337 c 9.999998,6.66636 15.885417,19.10713 15.885417,32.44023 H 76.151258 c -0.223649,-3.51676 -1.852276,-6.86759 -4.166671,-8.63101 z M 51.151261,110.70619 62.87,134.51578 c -2.499841,1.90416 -4.166645,5.71429 -4.166645,9.52369 H 34.484582 c 0,-15.23798 6.66668,-27.61899 16.666679,-33.33328 z m 15.885416,25.89302 c 3.333324,0 5.729169,2.73925 5.729169,6.54757 0,3.8094 -2.395908,6.54759 -5.729169,6.54759 -3.333321,0 -5.729166,-2.73927 -5.729166,-6.54759 0,-3.80976 2.395906,-6.54757 5.729166,-6.54757 z M 62.87,151.77778 c 1.666772,0.95028 2.500159,1.78538 4.166677,1.78538 1.666772,0 3.333324,-0.8351 4.16668,-1.78538 L 82.922094,175.587 c -4.166674,3.80976 -10.052092,4.7622 -15.885417,4.7622 -5.833321,0 -11.71874,-1.90416 -15.885416,-4.7622 z"
       id="path156"
       style="fill:#800080;stroke-width:8.90870762"
       inkscape:connector-curvature="0" />
  </g>
</svg>
