<?xml version="1.0" encoding="UTF-8" standalone="no"?>
<!-- Created with Inkscape (http://www.inkscape.org/) -->

<svg
   xmlns:dc="http://purl.org/dc/elements/1.1/"
   xmlns:cc="http://creativecommons.org/ns#"
   xmlns:rdf="http://www.w3.org/1999/02/22-rdf-syntax-ns#"
   xmlns:svg="http://www.w3.org/2000/svg"
   xmlns="http://www.w3.org/2000/svg"
   xmlns:sodipodi="http://sodipodi.sourceforge.net/DTD/sodipodi-0.dtd"
   xmlns:inkscape="http://www.inkscape.org/namespaces/inkscape"
   width="210mm"
   height="297mm"
   viewBox="0 0 210 297"
   version="1.1"
   id="svg8"
   inkscape:version="0.92.4 (5da689c313, 2019-01-14)"
   sodipodi:docname="ToMayMBACot.svg">
  <defs
     id="defs2" />
  <sodipodi:namedview
     id="base"
     pagecolor="#ffffff"
     bordercolor="#666666"
     borderopacity="1.0"
     inkscape:pageopacity="0.0"
     inkscape:pageshadow="2"
     inkscape:zoom="0.35"
     inkscape:cx="831.28499"
     inkscape:cy="388.37786"
     inkscape:document-units="mm"
     inkscape:current-layer="layer1"
     showgrid="false"
     inkscape:window-width="1920"
     inkscape:window-height="1017"
     inkscape:window-x="-8"
     inkscape:window-y="-8"
     inkscape:window-maximized="1" />
  <metadata
     id="metadata5">
    <rdf:RDF>
      <cc:Work
         rdf:about="">
        <dc:format>image/svg+xml</dc:format>
        <dc:type
           rdf:resource="http://purl.org/dc/dcmitype/StillImage" />
        <dc:title></dc:title>
      </cc:Work>
    </rdf:RDF>
  </metadata>
  <g
     inkscape:label="Layer 1"
     inkscape:groupmode="layer"
     id="layer1">
    <path
       inkscape:connector-curvature="0"
       style="fill:#800080;stroke-width:0.06833655"
       d="m 172.65353,169.20475 h 5.62738 l -3.89587,14.06318 12.55338,-19.90073 h -6.70959 l 3.67945,-10.34839 h -5.41094 z"
       id="path3769" />
    <path
       style="fill:#800080;stroke-width:0.06833655"
       inkscape:connector-curvature="0"
       d="m 201.65614,196.80044 h -46.53403 c -4.32875,0 -7.79175,-4.24551 -7.79175,-9.55236 v -42.4549 c 0,-5.30686 3.463,-9.55236 7.79175,-9.55236 h 46.53403 c 4.32876,0 7.79177,4.2455 7.79177,9.55236 v 42.4549 c -0.21645,5.30685 -3.67944,9.55236 -7.79177,9.55236 z m -46.53403,-55.19137 c -1.51507,0 -2.81368,1.59205 -2.81368,3.44946 v 42.45489 c 0,1.85741 1.08216,3.18413 2.59723,3.18413 h 46.53406 c 1.51507,0 2.59726,-1.32672 2.59726,-3.18413 v -42.45489 c 0,-1.85741 -1.08219,-3.18412 -2.59726,-3.18412 h -46.31761 z"
       id="path3771" />
    <path
       style="fill:#800080;stroke-width:0.06833655"
       inkscape:connector-curvature="0"
       d="m 196.6781,186.71739 h -36.79436 c -1.08221,0 -1.94795,-1.06136 -1.94795,-2.38809 v -36.352 c 0,-1.3267 0.86574,-2.38808 1.94795,-2.38808 h 37.01079 c 1.08218,0 1.94794,1.06138 1.94794,2.38808 v 36.352 c -0.21642,1.32673 -1.08219,2.38809 -2.16437,2.38809 z m -36.79436,-40.33215 c -0.64933,0 -1.29864,0.79604 -1.29864,1.59206 v 36.352 c 0,0.79604 0.64931,1.59206 1.29864,1.59206 h 37.01079 c 0.64931,0 1.29864,-0.79602 1.29864,-1.59206 v -36.352 c 0,-0.79602 -0.64933,-1.59206 -1.29864,-1.59206 z m 9.52323,-19.63538 h -8.65749 v -4.51084 h 8.65749 z m -7.14243,-1.85741 h 5.62739 v -0.79602 h -5.62739 z"
       id="path3773" />
    <path
       style="fill:#800080;stroke-width:0.06833655"
       inkscape:connector-curvature="0"
       d="m 169.40697,130.19932 h -8.65749 v -4.51084 h 8.65749 z m -7.14243,-1.8574 h 5.62739 v -0.79604 h -5.62739 z"
       id="path3775" />
    <path
       style="fill:#800080;stroke-width:0.06833655"
       inkscape:connector-curvature="0"
       d="m 169.40697,133.91412 h -8.65749 v -4.77618 h 8.65749 z m -7.14243,-2.12275 h 5.62739 v -0.79603 h -5.62739 z m 5.62739,-8.22563 h -5.41095 v -4.24551 h 5.41095 z m -3.8959,-1.85741 h 2.38083 v -0.53069 h -2.38083 z"
       id="path3777" />
    <path
       style="fill:#800080;stroke-width:0.06833655"
       inkscape:connector-curvature="0"
       d="m 167.89193,136.56755 h -5.41095 v -3.98016 h 5.41095 z m -3.8959,-1.85741 h 2.38083 v -0.26534 h -2.38083 z"
       id="path3779" />
    <path
       style="fill:#800080;stroke-width:0.06833655"
       inkscape:connector-curvature="0"
       d="m 182.60966,126.74986 h -8.65751 v -4.51084 h 8.65751 z m -7.14244,-1.85741 h 5.62737 v -0.79602 h -5.62737 z"
       id="path3781" />
    <path
       style="fill:#800080;stroke-width:0.06833655"
       inkscape:connector-curvature="0"
       d="m 182.60966,130.19932 h -8.65751 v -4.51084 h 8.65751 z m -7.14244,-1.8574 h 5.62737 v -0.79604 h -5.62737 z"
       id="path3783" />
    <path
       style="fill:#800080;stroke-width:0.06833655"
       inkscape:connector-curvature="0"
       d="m 182.60966,133.91412 h -8.65751 v -4.77618 h 8.65751 z m -7.14244,-2.12275 h 5.62737 v -0.79603 h -5.62737 z m 5.62737,-8.22563 h -5.62737 v -4.24551 h 5.41094 v 4.24551 z m -4.1123,-1.85741 h 2.38081 v -0.53069 h -2.38081 z"
       id="path3785" />
    <path
       style="fill:#800080;stroke-width:0.06833655"
       inkscape:connector-curvature="0"
       d="m 181.09459,136.56755 h -5.62737 v -3.98016 h 5.41094 v 3.98016 z m -4.1123,-1.85741 h 2.38081 v -0.26534 h -2.38081 z"
       id="path3787" />
    <path
       style="fill:#800080;stroke-width:0.06833655"
       inkscape:connector-curvature="0"
       d="m 195.81234,126.74986 h -8.65749 v -4.51084 h 8.65749 z m -7.14243,-1.85741 h 5.62739 v -0.79602 h -5.62739 z"
       id="path3789" />
    <path
       style="fill:#800080;stroke-width:0.06833655"
       inkscape:connector-curvature="0"
       d="m 195.81234,130.19932 h -8.65749 v -4.51084 h 8.65749 z m -7.14243,-1.8574 h 5.62739 v -0.79604 h -5.62739 z"
       id="path3791" />
    <path
       style="fill:#800080;stroke-width:0.06833655"
       inkscape:connector-curvature="0"
       d="m 195.81234,133.91412 h -8.65749 v -4.77618 h 8.65749 z m -7.14243,-2.12275 h 5.62739 v -0.79603 h -5.62739 z m 5.62739,-8.22563 h -5.41096 v -4.24551 h 5.41096 z m -4.11232,-1.85741 h 2.38079 v -0.53069 h -2.38079 z"
       id="path3793" />
    <path
       style="fill:#800080;stroke-width:0.06833655"
       inkscape:connector-curvature="0"
       d="m 194.2973,136.56755 h -5.41096 v -3.98016 h 5.41096 z m -4.11232,-1.85741 h 2.38079 v -0.26534 h -2.38079 z"
       id="path3795" />
    <g
       transform="matrix(0.30446464,0,0,0.41307346,53.256698,-1.0559688)"
       style="fill:#800080"
       id="g3869">
      <path
         inkscape:connector-curvature="0"
         d="m 72.097656,320.00391 c -4.417968,0 -8,-3.58204 -8,-8 v -24 c 0,-4.41797 3.582032,-8 8,-8 4.417969,0 8,3.58203 8,8 v 24 c 0,4.41796 -3.582031,8 -8,8 z m 0,0"
         id="path3857"
         style="fill:#800080" />
      <path
         inkscape:connector-curvature="0"
         d="m 72.097656,224.00391 c -4.417968,0 -8,-3.58204 -8,-8 v -24 c 0,-4.41797 3.582032,-8 8,-8 4.417969,0 8,3.58203 8,8 v 24 c 0,4.41796 -3.582031,8 -8,8 z m 0,0"
         id="path3859"
         style="fill:#800080" />
      <path
         inkscape:connector-curvature="0"
         d="m 72.097656,128.00391 c -4.417968,0 -8,-3.58203 -8,-8 V 96.003906 c 0,-4.417968 3.582032,-8 8,-8 4.417969,0 8,3.582032 8,8 v 24.000004 c 0,4.41797 -3.582031,8 -8,8 z m 0,0"
         id="path3861"
         style="fill:#800080" />
      <path
         inkscape:connector-curvature="0"
         d="m 312.09766,320.00391 c -4.41797,0 -8,-3.58204 -8,-8 v -24 c 0,-4.41797 3.58203,-8 8,-8 4.41796,0 8,3.58203 8,8 v 24 c 0,4.41796 -3.58204,8 -8,8 z m 0,0"
         id="path3863"
         style="fill:#800080" />
      <path
         inkscape:connector-curvature="0"
         d="m 312.09766,224.00391 c -4.41797,0 -8,-3.58204 -8,-8 v -24 c 0,-4.41797 3.58203,-8 8,-8 4.41796,0 8,3.58203 8,8 v 24 c 0,4.41796 -3.58204,8 -8,8 z m 0,0"
         id="path3865"
         style="fill:#800080" />
      <path
         inkscape:connector-curvature="0"
         d="m 312.09766,128.00391 c -4.41797,0 -8,-3.58203 -8,-8 V 96.003906 c 0,-4.417968 3.58203,-8 8,-8 4.41796,0 8,3.582032 8,8 v 24.000004 c 0,4.41797 -3.58204,8 -8,8 z m 0,0"
         id="path3867"
         style="fill:#800080" />
    </g>
    <path
       inkscape:connector-curvature="0"
       style="fill:#800080;stroke-width:0.35463536"
       d="m 111.74366,121.2154 c -0.64582,-0.001 -1.26545,-0.34853 -1.72214,-0.96815 l -14.6143,-19.82753 c -0.922895,-1.297308 -0.909832,-3.357842 0.02965,-4.632556 0.939542,-1.274714 2.459508,-1.292474 3.41452,-0.04038 l 12.72924,17.268386 10.47429,-17.047338 c 0.54948,-0.939094 1.43075,-1.402194 2.3037,-1.20694 0.87178,0.195233 1.59844,1.016538 1.89697,2.144425 0.29852,1.129496 0.12253,2.389694 -0.46027,3.291683 l -12.17858,19.82753 c -0.43767,0.71481 -1.07633,1.14401 -1.7602,1.18757 z m 0,0"
       id="path3871" />
    <path
       inkscape:connector-curvature="0"
       style="fill:#800080;stroke-width:0.35463536"
       d="m 111.74366,101.38787 c -0.64582,-0.001 -1.26545,-0.34854 -1.72214,-0.96815 L 95.40722,80.592192 c -0.922895,-1.297312 -0.909832,-3.357832 0.02965,-4.63256 0.939542,-1.274714 2.459508,-1.29246 3.41452,-0.04038 l 12.72924,17.268406 10.47429,-17.047344 c 0.87058,-1.350557 2.37625,-1.511906 3.39192,-0.363057 1.01568,1.148863 1.1703,3.186799 0.34847,4.592223 L 113.61674,100.197 c -0.43767,0.71482 -1.07633,1.14401 -1.76019,1.18758 z m 0,0"
       id="path3873" />
    <path
       inkscape:connector-curvature="0"
       style="fill:#800080;stroke-width:0.35463536"
       d="m 111.74366,81.560338 c -0.64582,-0.0014 -1.26545,-0.348542 -1.72214,-0.968146 l -14.6143,-19.82752 c -0.922895,-1.297321 -0.909832,-3.357842 0.02965,-4.632557 0.939542,-1.274729 2.459508,-1.292471 3.41452,-0.04036 l 12.72924,17.268407 10.47429,-17.047342 c 0.87058,-1.350561 2.37625,-1.51191 3.39192,-0.363058 1.01568,1.148864 1.1703,3.186808 0.34847,4.592223 l -12.17857,19.827516 c -0.43767,0.714808 -1.07633,1.144018 -1.76019,1.187585 z m 0,0"
       id="path3875" />
    <path
       inkscape:connector-curvature="0"
       style="fill:#800080;stroke-width:0.35463536"
       d="m 111.74366,61.73282 c -0.64582,-0.0014 -1.26545,-0.34854 -1.72214,-0.968148 L 95.40722,40.93714 c -0.922895,-1.297306 -0.909832,-3.357827 0.02965,-4.632556 0.939542,-1.274716 2.459508,-1.292471 3.41452,-0.04036 l 12.72924,17.268403 10.47429,-17.047339 c 0.87058,-1.350561 2.37625,-1.51191 3.39192,-0.363059 1.01568,1.148865 1.1703,3.186808 0.34847,4.592223 L 113.61674,60.54197 c -0.43767,0.714823 -1.07633,1.14403 -1.76019,1.187587 z m 0,0"
       id="path3877" />
    <path
       inkscape:connector-curvature="0"
       style="fill:#800080;stroke-width:0.35463536"
       d="m 111.74366,41.905288 c -0.64582,-0.0014 -1.26545,-0.348526 -1.72214,-0.968148 L 95.40722,21.10962 c -0.632713,-0.830989 -0.886045,-2.058919 -0.663646,-3.214229 0.222418,-1.155317 0.888424,-2.057304 1.739972,-2.360655 0.851561,-0.301737 1.756625,0.04187 2.367924,0.901979 l 12.72925,17.268421 10.47429,-17.047352 c 0.54946,-0.9391 1.43075,-1.402194 2.3037,-1.206953 0.87177,0.195247 1.59844,1.016552 1.89697,2.144439 0.29851,1.129495 0.12253,2.389693 -0.46027,3.29168 l -12.1786,19.827514 c -0.43766,0.714808 -1.07632,1.14403 -1.76017,1.187587 z m 0,0"
       id="path3879" />
    <path
       inkscape:connector-curvature="0"
       style="fill:#800080;stroke-width:0.35463536"
       d="m 111.74366,157.56585 c -0.89082,0 -1.71143,-0.66155 -2.13839,-1.72166 L 94.990963,119.4937 c -0.411504,-1.02459 -0.39487,-2.26706 0.04405,-3.27069 0.438848,-1.00365 1.234505,-1.61841 2.094382,-1.6168 h 29.228595 c 0.85987,-0.001 1.65671,0.61315 2.09558,1.6168 0.43885,1.00363 0.4555,2.2461 0.044,3.27069 l -14.61431,36.35049 c -0.42695,1.06011 -1.24759,1.72166 -2.13955,1.72166 z m -10.50999,-36.35045 10.50999,26.14464 10.51116,-26.14464 z m 0,0"
       id="path3881" />
    <path
       inkscape:connector-curvature="0"
       style="fill:#800080;stroke-width:0.35463536"
       d="m 145.84369,197.22091 c -1.0359,-0.001 -1.95762,-0.89069 -2.29895,-2.21864 l -19.48573,-76.00553 c -0.0904,-0.34855 -0.13558,-0.71645 -0.13678,-1.08594 V 22.077758 H 99.565063 V 117.9108 c 0,0.36949 -0.04642,0.73739 -0.135581,1.08594 l -19.485746,76.00553 c -0.466197,1.67809 -1.83391,2.54619 -3.081497,1.95563 -1.247595,-0.58896 -1.920754,-2.42196 -1.517567,-4.12912 L 94.69364,117.35089 V 18.773171 c 0,-1.824949 1.090593,-3.304587 2.435721,-3.304587 h 29.228599 c 1.3451,0 2.43572,1.479638 2.43572,3.304587 v 98.577719 l 19.35014,75.47789 c 0.25928,1.01009 0.14152,2.12829 -0.31517,3.00124 -0.4567,0.8713 -1.19644,1.38928 -1.98496,1.39089 z m 0,0"
       id="path3883" />
    <path
       inkscape:connector-curvature="0"
       style="fill:#800080;stroke-width:0.35463536"
       d="M 148.2794,121.2154 H 75.207888 c -1.07275,0 -2.019458,-0.95363 -2.331055,-2.34775 -0.311596,-1.39252 0.08682,-2.89959 0.980002,-3.70636 L 95.77829,95.333755 c 0.4008,-0.361435 0.870581,-0.555074 1.351071,-0.555074 h 29.228599 c 0.48166,0 0.95144,0.193639 1.35224,0.555074 l 21.92146,19.827535 c 0.89316,0.80677 1.29159,2.31384 0.97999,3.70636 -0.3116,1.39412 -1.2583,2.34775 -2.33225,2.34775 z m -65.032918,-6.60919 h 56.995528 l -14.6143,-13.21834 H 97.860785 Z m 0,0"
       id="path3885" />
    <path
       inkscape:connector-curvature="0"
       style="fill:#800080;stroke-width:0.35463536"
       d="M 148.2794,81.560338 H 75.207888 c -1.07275,0 -2.019458,-0.95363 -2.331055,-2.347748 -0.311596,-1.39251 0.08682,-2.899585 0.980002,-3.706367 L 95.77829,55.678705 c 0.4008,-0.361448 0.870581,-0.555072 1.351071,-0.555072 h 29.228599 c 0.48166,0 0.95144,0.193624 1.35224,0.555072 l 21.92146,19.827518 c 0.89316,0.806782 1.29159,2.313857 0.97999,3.706367 -0.3116,1.394118 -1.2583,2.347748 -2.33225,2.347748 z M 83.246482,74.951163 H 140.24201 L 125.62771,61.73282 H 97.860785 Z m 0,0"
       id="path3887" />
    <path
       inkscape:connector-curvature="0"
       style="fill:#800080;stroke-width:0.35463536"
       d="M 148.2794,41.905288 H 75.207888 c -1.07275,0 -2.019458,-0.953629 -2.331055,-2.347747 -0.311596,-1.392507 0.08682,-2.899582 0.980002,-3.706368 L 95.77829,16.023644 c 0.4008,-0.361436 0.870581,-0.55506 1.351071,-0.55506 h 29.228599 c 0.48166,0 0.95144,0.193624 1.35224,0.55506 l 21.92146,19.827529 c 0.89316,0.806786 1.29159,2.313861 0.97999,3.706368 -0.3116,1.394118 -1.2583,2.347747 -2.33225,2.347747 z M 83.246482,35.296102 H 140.24201 L 125.62771,22.077758 H 97.860785 Z m 0,0"
       id="path3889" />
    <path
       inkscape:connector-curvature="0"
       style="fill:#800080;stroke-width:0.35463536"
       d="M 111.74366,22.077758 H 97.129361 c -1.157213,0 -2.155052,-1.105295 -2.38697,-2.644646 L 92.306682,2.9101822 c -0.195055,-1.3279727 0.227159,-2.68497639 1.065623,-3.42076804 0.838471,-0.73578456 1.92312,-0.70350906 2.736601,0.0839476 L 113.15892,16.096292 c 0.85395,0.837449 1.21311,2.325156 0.89081,3.687013 -0.32111,1.360234 -1.25235,2.28642 -2.30607,2.294496 z M 99.127406,15.468584 h 5.015334 L 98.296062,9.7968799 Z m 0,0"
       id="path3891" />
    <path
       inkscape:connector-curvature="0"
       style="fill:#800080;stroke-width:0.35463536"
       d="m 126.35796,22.077758 h -14.6143 c -1.0585,0 -1.99688,-0.929416 -2.31918,-2.297719 -0.32348,-1.368317 0.0428,-2.862471 0.90388,-3.696683 l 17.05003,-16.52294415 c 0.81586,-0.79063745 1.9029,-0.82291295 2.74374,-0.0822615 0.83966,0.73900787 1.25949,2.10085005 1.0585,3.43204605 l -2.43572,16.5229446 c -0.23072,1.539336 -1.22858,2.644632 -2.38695,2.644632 z m -7.01221,-6.609174 h 5.01534 l 0.8349,-5.6717041 z m 0,0"
       id="path3893" />
    <path
       inkscape:connector-curvature="0"
       style="fill:#800080;stroke-width:0.35463536"
       d="m 145.84369,197.22091 c -0.58158,0 -1.14412,-0.28399 -1.58536,-0.7971 l -32.51467,-37.81075 -32.51351,37.81075 c -0.655303,0.8213 -1.588914,1.09078 -2.434505,0.70351 -0.844428,-0.38888 -1.466443,-1.37315 -1.618671,-2.56557 -0.152228,-1.19244 0.187915,-2.4026 0.886038,-3.15454 l 34.100038,-39.65502 c 0.91221,-1.05691 2.25493,-1.05691 3.16714,0 l 34.10004,39.65502 c 0.77306,0.90038 1.05136,2.35904 0.69813,3.65473 -0.35441,1.29733 -1.26544,2.15897 -2.28467,2.15897 z m 0,0"
       id="path3895" />
    <path
       inkscape:connector-curvature="0"
       style="fill:#800080;stroke-width:0.35463536"
       d="M 133.66511,157.56585 H 89.822203 c -1.345115,0 -2.435721,-1.47963 -2.435721,-3.30459 0,-1.82495 1.090606,-3.30458 2.435721,-3.30458 h 43.842907 c 1.3451,0 2.43571,1.47963 2.43571,3.30458 0,1.82496 -1.09061,3.30459 -2.43571,3.30459 z m 0,0"
       id="path3897" />
    <path
       inkscape:connector-curvature="0"
       style="fill:#800080;stroke-width:0.35463536"
       d="M 167.76514,197.22091 H 55.722161 c -1.345125,0 -2.435719,-1.47965 -2.435719,-3.3046 0,-1.82493 1.090594,-3.30457 2.435719,-3.30457 H 167.76514 c 1.34512,0 2.43572,1.47964 2.43572,3.30457 0,1.82495 -1.0906,3.3046 -2.43572,3.3046 z m 0,0"
       id="path3899" />
    <path
       d="m 58.550767,89.737477 c -4.011309,0 -8.427662,0.881222 -12.641581,2.876114 -3.553457,1.683181 -6.836725,4.567011 -9.220909,8.308469 -4.227066,0.51016 -8.416653,1.25997 -11.600503,3.67498 -3.963842,3.00615 -6.990051,7.73493 -6.990051,13.26198 h 9.518366 c 0,-1.631 0.870413,-3.35765 2.974497,-4.95331 2.104099,-1.59622 5.320669,-2.71628 8.923448,-2.71628 h 2.974495 l 1.338448,-2.87611 c 1.017009,-2.18524 3.14309,-4.10418 5.948971,-5.43256 2.80588,-1.32761 6.123198,-1.917016 8.774745,-1.917016 z m 16.657121,7.669422 c 0,1.439683 -1.725535,4.095471 -5.651512,6.391261 -3.92603,2.29577 -9.370119,3.83479 -13.385206,3.83479 v 10.22607 c 5.97919,0 12.373574,-1.75276 17.84694,-4.95331 5.47334,-3.20055 10.708141,-8.24528 10.708141,-15.498811 z M 8.5793752,125.52844 v 10.22605 H 13.33855 v 10.2259 l -14.27753983,40.90406 v 10.22609 H 75.207888 V 186.88445 L 60.930344,145.98039 v -10.2259 h 4.759193 v -10.22605 z m 38.0734278,23.00861 c 5.711017,3.57895 9.072189,10.25796 9.072189,17.41603 H 42.339807 c -0.127702,-1.88804 -1.057839,-3.68697 -2.379594,-4.63369 z m -18.590533,0.47928 6.692589,12.78253 c -1.427844,1.02227 -2.379593,3.06778 -2.379593,5.11293 H 18.543902 c 0,-8.18075 3.807349,-14.82767 9.518368,-17.89546 z m 9.072187,13.90103 c 1.903665,0 3.271936,1.47062 3.271936,3.51519 0,2.04511 -1.368307,3.51515 -3.271936,3.51515 -1.903682,0 -3.271937,-1.4706 -3.271937,-3.51515 0,-2.04533 1.368306,-3.51519 3.271937,-3.51519 z m -2.379598,8.14883 c 0.951896,0.51212 1.427667,0.95854 2.379598,0.95854 0.951896,0 1.903665,-0.44642 2.379577,-0.95854 l 6.69261,12.78237 c -2.379595,2.04533 -5.740766,2.55666 -9.072187,2.55666 -3.331438,0 -6.692593,-1.02228 -9.072187,-2.55666 z"
       id="path20"
       inkscape:connector-curvature="0"
       style="fill:#800080;stroke-width:4.93291855" />
  </g>
</svg>
